<svg xmlns="http://www.w3.org/2000/svg" viewBox="0 0 640 360" fill="none">
  <rect width="640" height="360" fill="#F3F6F4"/>
  <!-- device -->
  <rect x="120" y="100" width="160" height="200" rx="22" fill="#10241C"/>
  <rect x="136" y="120" width="128" height="148" rx="10" fill="#1B6B4A"/>
  <circle cx="200" cy="286" r="8" fill="#5EB89A"/>
  <!-- lock on device -->
  <rect x="176" y="168" width="48" height="36" rx="6" fill="#E8F5F0"/>
  <path d="M188 168v-10a12 12 0 0 1 24 0v10" stroke="#E8F5F0" stroke-width="6" fill="none" stroke-linecap="round"/>
  <!-- encrypted packets to server -->
  <path d="M290 180 H360" stroke="#0D9488" stroke-width="3" stroke-dasharray="8 8"/>
  <path d="M290 210 H360" stroke="#82C9A1" stroke-width="3" stroke-dasharray="8 8"/>
  <circle cx="325" cy="180" r="10" fill="#0D9488"/>
  <circle cx="325" cy="210" r="10" fill="#82C9A1"/>
  <!-- server -->
  <rect x="380" y="120" width="160" height="140" rx="16" fill="#0F5C4C"/>
  <rect x="400" y="145" width="120" height="18" rx="6" fill="#187A64"/>
  <rect x="400" y="180" width="120" height="18" rx="6" fill="#187A64"/>
  <rect x="400" y="215" width="120" height="18" rx="6" fill="#187A64"/>
  <text x="460" y="290" text-anchor="middle" fill="#4A6358" font-family="ui-monospace, monospace" font-size="14">ciphertext only</text>
</svg>
